<svg xmlns="http://www.w3.org/2000/svg" width="1500" height="592" viewBox="0 0 1500 592">
<rect width="100%" height="100%" fill="#080c14"/>
<style>text{font-family:-apple-system,BlinkMacSystemFont,"Segoe UI",sans-serif;fill:#e8edf5} .muted{fill:#91a0b5} .grid{stroke:#263246;stroke-width:1} .axis{fill:#91a0b5;font-size:13px} .label{font-size:14px} .value{font-size:13px;font-variant-numeric:tabular-nums}</style>
<text x="52" y="42" font-size="26" font-weight="700">Parallel EKF steady-state throughput (checked only)</text>
<text x="52" y="68" class="muted" font-size="15">Apple M1 | backend: 100,000 filters x 5 turns; language: 10,000 filters x 20 turns | median of 3 isolated process samples | million EKF turns per second | integrity checks enabled</text>
<line x1="430.0" y1="102" x2="430.0" y2="496" class="grid"/>
<text x="430.0" y="520" text-anchor="middle" class="axis">0</text>
<line x1="565.7" y1="102" x2="565.7" y2="496" class="grid"/>
<text x="565.7" y="520" text-anchor="middle" class="axis">10</text>
<line x1="701.4" y1="102" x2="701.4" y2="496" class="grid"/>
<text x="701.4" y="520" text-anchor="middle" class="axis">20</text>
<line x1="837.1" y1="102" x2="837.1" y2="496" class="grid"/>
<text x="837.1" y="520" text-anchor="middle" class="axis">30</text>
<line x1="972.9" y1="102" x2="972.9" y2="496" class="grid"/>
<text x="972.9" y="520" text-anchor="middle" class="axis">40</text>
<line x1="1108.6" y1="102" x2="1108.6" y2="496" class="grid"/>
<text x="1108.6" y="520" text-anchor="middle" class="axis">50</text>
<line x1="1244.3" y1="102" x2="1244.3" y2="496" class="grid"/>
<text x="1244.3" y="520" text-anchor="middle" class="axis">60</text>
<line x1="1380.0" y1="102" x2="1380.0" y2="496" class="grid"/>
<text x="1380.0" y="520" text-anchor="middle" class="axis">70</text>
<text x="905.0" y="564" text-anchor="middle" class="muted" font-size="14">million EKF turns/s</text>
<line x1="778.1" y1="95" x2="778.1" y2="496" stroke="#f3a847" stroke-width="2" stroke-dasharray="7 6"/>
<text x="786.1" y="91" fill="#f3a847" font-size="13">Rust packed-SIMD checked reference: 25.65</text>
<text x="414" y="139" text-anchor="end" class="label">Mech scalar</text>
<rect x="430" y="125" width="12.6" height="19" rx="3" fill="#40d4b0" opacity="0.9"/>
<text x="451.6" y="139" class="value">0.93</text>
<text x="414" y="170" text-anchor="end" class="label">Mech Cranelift JIT</text>
<rect x="430" y="156" width="226.8" height="19" rx="3" fill="#40d4b0" opacity="0.9"/>
<text x="665.8" y="170" class="value">16.71</text>
<text x="414" y="201" text-anchor="end" class="label">Mech Cranelift SIMD-JIT</text>
<rect x="430" y="187" width="563.2" height="19" rx="3" fill="#40d4b0" opacity="0.9"/>
<text x="1002.2" y="201" class="value">41.50</text>
<text x="414" y="232" text-anchor="end" class="label">Rust packed SIMD checked</text>
<rect x="430" y="218" width="348.1" height="19" rx="3" fill="#f3a847" opacity="0.9"/>
<text x="787.1" y="232" class="value">25.65</text>
<text x="414" y="263" text-anchor="end" class="label">Julia generic checked</text>
<rect x="430" y="249" width="41.7" height="19" rx="3" fill="#b68cff" opacity="0.9"/>
<text x="480.7" y="263" class="value">3.07</text>
<text x="414" y="294" text-anchor="end" class="label">Julia fixed-shape checked</text>
<rect x="430" y="280" width="253.4" height="19" rx="3" fill="#b68cff" opacity="0.9"/>
<text x="692.4" y="294" class="value">18.67</text>
<text x="414" y="325" text-anchor="end" class="label">Julia fixed-shape SIMD checked</text>
<rect x="430" y="311" width="381.3" height="19" rx="3" fill="#b68cff" opacity="0.9"/>
<text x="820.3" y="325" class="value">28.09</text>
<text x="414" y="356" text-anchor="end" class="label">Julia SIMD.jl intrinsics checked</text>
<rect x="430" y="342" width="418.5" height="19" rx="3" fill="#b68cff" opacity="0.9"/>
<text x="857.5" y="356" class="value">30.84</text>
<text x="414" y="387" text-anchor="end" class="label">NumPy vectorized fixed-shape checked</text>
<rect x="430" y="373" width="144.9" height="19" rx="3" fill="#66a6ff" opacity="0.9"/>
<text x="583.9" y="387" class="value">10.67</text>
<text x="414" y="418" text-anchor="end" class="label">LuaJIT fixed-shape flat checked</text>
<rect x="430" y="404" width="17.1" height="19" rx="3" fill="#000080" opacity="0.9"/>
<text x="456.1" y="418" class="value">1.26</text>
<text x="414" y="449" text-anchor="end" class="label">Mech GPU, checked one-turn API call</text>
<rect x="430" y="435" width="852.3" height="19" rx="3" fill="#56c7e8" opacity="0.9"/>
<text x="1291.3" y="449" class="value">62.80</text>
<text x="414" y="480" text-anchor="end" class="label">Mech GPU, checked repeated API call</text>
<rect x="430" y="466" width="763.8" height="19" rx="3" fill="#56c7e8" opacity="0.9"/>
<text x="1202.8" y="480" class="value">56.28</text>
<text x="52" y="537" class="muted" font-size="12">Checked controls only; unchecked-only controls are omitted. Checked GPU rows synchronize and validate each turn; the unchecked row batches all turns in one device submission. Parse, compilation, setup, and final readback are excluded.</text>
<text x="1380" y="574" text-anchor="end" fill="#91a0b5" font-size="12">Machine: Apple M1 | macOS 15.6.1 | arm64</text>
</svg>
