<svg xmlns="http://www.w3.org/2000/svg" width="1500" height="623" viewBox="0 0 1500 623">
<rect width="100%" height="100%" fill="#080c14"/>
<style>text{font-family:-apple-system,BlinkMacSystemFont,"Segoe UI",sans-serif;fill:#e8edf5} .muted{fill:#91a0b5} .grid{stroke:#263246;stroke-width:1} .axis{fill:#91a0b5;font-size:13px} .label{font-size:14px} .value{font-size:13px;font-variant-numeric:tabular-nums}</style>
<text x="52" y="42" font-size="26" font-weight="700">Parallel EKF steady-state throughput (checked only)</text>
<text x="52" y="68" class="muted" font-size="15">Apple M1 | backend: 100,000 filters x 5 turns; language: 10,000 filters x 20 turns | median of 3 isolated process samples | million EKF turns per second | integrity checks enabled</text>
<line x1="430.0" y1="102" x2="430.0" y2="527" class="grid"/>
<text x="430.0" y="551" text-anchor="middle" class="axis">0</text>
<line x1="588.3" y1="102" x2="588.3" y2="527" class="grid"/>
<text x="588.3" y="551" text-anchor="middle" class="axis">10</text>
<line x1="746.7" y1="102" x2="746.7" y2="527" class="grid"/>
<text x="746.7" y="551" text-anchor="middle" class="axis">20</text>
<line x1="905.0" y1="102" x2="905.0" y2="527" class="grid"/>
<text x="905.0" y="551" text-anchor="middle" class="axis">30</text>
<line x1="1063.3" y1="102" x2="1063.3" y2="527" class="grid"/>
<text x="1063.3" y="551" text-anchor="middle" class="axis">40</text>
<line x1="1221.7" y1="102" x2="1221.7" y2="527" class="grid"/>
<text x="1221.7" y="551" text-anchor="middle" class="axis">50</text>
<line x1="1380.0" y1="102" x2="1380.0" y2="527" class="grid"/>
<text x="1380.0" y="551" text-anchor="middle" class="axis">60</text>
<text x="905.0" y="595" text-anchor="middle" class="muted" font-size="14">million EKF turns/s</text>
<line x1="837.3" y1="95" x2="837.3" y2="527" stroke="#f3a847" stroke-width="2" stroke-dasharray="7 6"/>
<text x="845.3" y="91" fill="#f3a847" font-size="13">Rust packed-SIMD checked reference: 25.72</text>
<text x="414" y="139" text-anchor="end" class="label">Mech scalar</text>
<rect x="430" y="125" width="13.8" height="19" rx="3" fill="#40d4b0" opacity="0.9"/>
<text x="452.8" y="139" class="value">0.87</text>
<text x="414" y="170" text-anchor="end" class="label">Mech Cranelift JIT</text>
<rect x="430" y="156" width="264.2" height="19" rx="3" fill="#40d4b0" opacity="0.9"/>
<text x="703.2" y="170" class="value">16.69</text>
<text x="414" y="201" text-anchor="end" class="label">Mech Cranelift SIMD-JIT</text>
<rect x="430" y="187" width="542.5" height="19" rx="3" fill="#40d4b0" opacity="0.9"/>
<text x="981.5" y="201" class="value">34.26</text>
<text x="414" y="232" text-anchor="end" class="label">Mech Cranelift SIMD-JIT checked fast</text>
<rect x="430" y="218" width="580.8" height="19" rx="3" fill="#40d4b0" opacity="0.9"/>
<text x="1019.8" y="232" class="value">36.68</text>
<text x="414" y="263" text-anchor="end" class="label">Rust packed SIMD checked</text>
<rect x="430" y="249" width="407.3" height="19" rx="3" fill="#f3a847" opacity="0.9"/>
<text x="846.3" y="263" class="value">25.72</text>
<text x="414" y="294" text-anchor="end" class="label">Julia generic checked</text>
<rect x="430" y="280" width="48.4" height="19" rx="3" fill="#b68cff" opacity="0.9"/>
<text x="487.4" y="294" class="value">3.06</text>
<text x="414" y="325" text-anchor="end" class="label">Julia fixed-shape checked</text>
<rect x="430" y="311" width="299.9" height="19" rx="3" fill="#b68cff" opacity="0.9"/>
<text x="738.9" y="325" class="value">18.94</text>
<text x="414" y="356" text-anchor="end" class="label">Julia fixed-shape SIMD checked</text>
<rect x="430" y="342" width="452.6" height="19" rx="3" fill="#b68cff" opacity="0.9"/>
<text x="891.6" y="356" class="value">28.58</text>
<text x="414" y="387" text-anchor="end" class="label">Julia SIMD.jl intrinsics checked</text>
<rect x="430" y="373" width="493.9" height="19" rx="3" fill="#b68cff" opacity="0.9"/>
<text x="932.9" y="387" class="value">31.19</text>
<text x="414" y="418" text-anchor="end" class="label">NumPy vectorized fixed-shape checked</text>
<rect x="430" y="404" width="169.2" height="19" rx="3" fill="#66a6ff" opacity="0.9"/>
<text x="608.2" y="418" class="value">10.69</text>
<text x="414" y="449" text-anchor="end" class="label">LuaJIT fixed-shape flat checked</text>
<rect x="430" y="435" width="20.1" height="19" rx="3" fill="#f276ad" opacity="0.9"/>
<text x="459.1" y="449" class="value">1.27</text>
<text x="414" y="480" text-anchor="end" class="label">Mech GPU, one submission/turn</text>
<rect x="430" y="466" width="834.0" height="19" rx="3" fill="#56c7e8" opacity="0.9"/>
<text x="1273.0" y="480" class="value">52.67</text>
<text x="414" y="511" text-anchor="end" class="label">Mech GPU, checked repeated turns</text>
<rect x="430" y="497" width="855.1" height="19" rx="3" fill="#56c7e8" opacity="0.9"/>
<text x="1294.1" y="511" class="value">54.01</text>
<text x="52" y="568" class="muted" font-size="12">Checked controls only; unchecked-only controls are omitted. GPU rows are Mech context measurements, not CPU comparisons. Parse, compilation, setup, and readback are excluded.</text>
</svg>
