<svg xmlns="http://www.w3.org/2000/svg" width="1700" height="871" viewBox="0 0 1700 871">
<rect width="100%" height="100%" fill="#080c14"/>
<style>text{font-family:-apple-system,BlinkMacSystemFont,"Segoe UI",sans-serif;fill:#e8edf5} .muted{fill:#91a0b5} .grid{stroke:#263246;stroke-width:1} .axis{fill:#91a0b5;font-size:13px} .label{font-size:14px} .value{font-size:13px;font-variant-numeric:tabular-nums}</style>
<text x="52" y="42" font-size="26" font-weight="700">Cross-language EKF runtime throughput (unchecked)</text>
<text x="52" y="68" class="muted" font-size="15">Apple M1 | CPU/language: 10,000x20; Mech backend: 100,000x5; matched GPU runtime/native: 500,000x40 | steady-state, sorted</text>
<line x1="550.0" y1="102" x2="550.0" y2="775" class="grid"/>
<text x="550.0" y="799" text-anchor="middle" class="axis">0</text>
<line x1="627.7" y1="102" x2="627.7" y2="775" class="grid"/>
<text x="627.7" y="799" text-anchor="middle" class="axis">20</text>
<line x1="705.4" y1="102" x2="705.4" y2="775" class="grid"/>
<text x="705.4" y="799" text-anchor="middle" class="axis">40</text>
<line x1="783.1" y1="102" x2="783.1" y2="775" class="grid"/>
<text x="783.1" y="799" text-anchor="middle" class="axis">60</text>
<line x1="860.8" y1="102" x2="860.8" y2="775" class="grid"/>
<text x="860.8" y="799" text-anchor="middle" class="axis">80</text>
<line x1="938.5" y1="102" x2="938.5" y2="775" class="grid"/>
<text x="938.5" y="799" text-anchor="middle" class="axis">100</text>
<line x1="1016.2" y1="102" x2="1016.2" y2="775" class="grid"/>
<text x="1016.2" y="799" text-anchor="middle" class="axis">120</text>
<line x1="1093.8" y1="102" x2="1093.8" y2="775" class="grid"/>
<text x="1093.8" y="799" text-anchor="middle" class="axis">140</text>
<line x1="1171.5" y1="102" x2="1171.5" y2="775" class="grid"/>
<text x="1171.5" y="799" text-anchor="middle" class="axis">160</text>
<line x1="1249.2" y1="102" x2="1249.2" y2="775" class="grid"/>
<text x="1249.2" y="799" text-anchor="middle" class="axis">180</text>
<line x1="1326.9" y1="102" x2="1326.9" y2="775" class="grid"/>
<text x="1326.9" y="799" text-anchor="middle" class="axis">200</text>
<line x1="1404.6" y1="102" x2="1404.6" y2="775" class="grid"/>
<text x="1404.6" y="799" text-anchor="middle" class="axis">220</text>
<line x1="1482.3" y1="102" x2="1482.3" y2="775" class="grid"/>
<text x="1482.3" y="799" text-anchor="middle" class="axis">240</text>
<line x1="1560.0" y1="102" x2="1560.0" y2="775" class="grid"/>
<text x="1560.0" y="799" text-anchor="middle" class="axis">260</text>
<text x="1055.0" y="843" text-anchor="middle" class="muted" font-size="14">million EKF turns per second</text>
<rect x="1100" y="16" width="14" height="14" rx="2" fill="#f4c430"/>
<text x="1122" y="27" font-size="13">Mech</text>
<rect x="1215" y="16" width="14" height="14" rx="2" fill="#dea584"/>
<text x="1237" y="27" font-size="13">Rust</text>
<rect x="1330" y="16" width="14" height="14" rx="2" fill="#4d77cf"/>
<text x="1352" y="27" font-size="13">NumPy</text>
<rect x="1445" y="16" width="14" height="14" rx="2" fill="#9558b2"/>
<text x="1467" y="27" font-size="13">Julia</text>
<rect x="1100" y="38" width="14" height="14" rx="2" fill="#000080"/>
<text x="1122" y="49" font-size="13">Lua</text>
<rect x="1215" y="38" width="14" height="14" rx="2" fill="#5ba37f"/>
<text x="1237" y="49" font-size="13">LuaJIT</text>
<rect x="1330" y="38" width="14" height="14" rx="2" fill="#e36b6b"/>
<text x="1352" y="49" font-size="13">Taichi</text>
<rect x="1445" y="38" width="14" height="14" rx="2" fill="#ff8f00"/>
<text x="1467" y="49" font-size="13">Halide</text>
<rect x="1100" y="60" width="14" height="14" rx="2" fill="#e94f37"/>
<text x="1122" y="71" font-size="13">Futhark</text>
<text x="534" y="139" text-anchor="end" class="label">NumPy scalar outer loop, unchecked</text>
<rect x="550" y="125" width="1.0" height="19" rx="3" fill="#4d77cf" opacity="0.9"/>
<text x="560.0" y="139" class="value">0.06</text>
<text x="534" y="170" text-anchor="end" class="label">Lua fixed-shape flat unchecked</text>
<rect x="550" y="156" width="3.2" height="19" rx="3" fill="#000080" opacity="0.9"/>
<text x="562.2" y="170" class="value">0.83</text>
<text x="534" y="201" text-anchor="end" class="label">LuaJIT scalar outer loop, unchecked</text>
<rect x="550" y="187" width="4.2" height="19" rx="3" fill="#5ba37f" opacity="0.9"/>
<text x="563.2" y="201" class="value">1.09</text>
<text x="534" y="232" text-anchor="end" class="label">Julia generic, unchecked</text>
<rect x="550" y="218" width="12.2" height="19" rx="3" fill="#9558b2" opacity="0.9"/>
<text x="571.2" y="232" class="value">3.14</text>
<text x="534" y="263" text-anchor="end" class="label">Halide, unchecked</text>
<rect x="550" y="249" width="19.6" height="19" rx="3" fill="#ff8f00" opacity="0.9"/>
<text x="578.6" y="263" class="value">5.06</text>
<text x="534" y="294" text-anchor="end" class="label">NumPy vectorized fixed-shape, unchecked</text>
<rect x="550" y="280" width="47.6" height="19" rx="3" fill="#4d77cf" opacity="0.9"/>
<text x="606.6" y="294" class="value">12.26</text>
<text x="534" y="325" text-anchor="end" class="label">LuaJIT fixed-shape flat, unchecked</text>
<rect x="550" y="311" width="62.1" height="19" rx="3" fill="#5ba37f" opacity="0.9"/>
<text x="621.1" y="325" class="value">15.98</text>
<text x="534" y="356" text-anchor="end" class="label">Rust optimized fixed-shape, unchecked</text>
<rect x="550" y="342" width="65.0" height="19" rx="3" fill="#dea584" opacity="0.9"/>
<text x="624.0" y="356" class="value">16.73</text>
<text x="534" y="387" text-anchor="end" class="label">Mech Cranelift JIT unchecked</text>
<rect x="550" y="373" width="70.2" height="19" rx="3" fill="#f4c430" opacity="0.9"/>
<text x="629.2" y="387" class="value">18.07</text>
<text x="534" y="418" text-anchor="end" class="label">Mech Cranelift JIT unchecked fast</text>
<rect x="550" y="404" width="78.5" height="19" rx="3" fill="#f4c430" opacity="0.9"/>
<text x="637.5" y="418" class="value">20.20</text>
<text x="534" y="449" text-anchor="end" class="label">Julia fixed-shape, unchecked</text>
<rect x="550" y="435" width="85.3" height="19" rx="3" fill="#9558b2" opacity="0.9"/>
<text x="644.3" y="449" class="value">21.96</text>
<text x="534" y="480" text-anchor="end" class="label">Rust packed SIMD, unchecked</text>
<rect x="550" y="466" width="86.4" height="19" rx="3" fill="#dea584" opacity="0.9"/>
<text x="645.4" y="480" class="value">22.24</text>
<text x="534" y="511" text-anchor="end" class="label">Julia SIMD.jl intrinsics, unchecked</text>
<rect x="550" y="497" width="127.6" height="19" rx="3" fill="#9558b2" opacity="0.9"/>
<text x="686.6" y="511" class="value">32.84</text>
<text x="534" y="542" text-anchor="end" class="label">Julia fixed-shape SIMD, unchecked</text>
<rect x="550" y="528" width="138.9" height="19" rx="3" fill="#9558b2" opacity="0.9"/>
<text x="697.9" y="542" class="value">35.75</text>
<text x="534" y="573" text-anchor="end" class="label">Mech Cranelift SIMD-JIT unchecked</text>
<rect x="550" y="559" width="150.1" height="19" rx="3" fill="#f4c430" opacity="0.9"/>
<text x="709.1" y="573" class="value">38.63</text>
<text x="534" y="604" text-anchor="end" class="label">Mech Cranelift SIMD-JIT unchecked fast</text>
<rect x="550" y="590" width="159.8" height="19" rx="3" fill="#f4c430" opacity="0.9"/>
<text x="718.8" y="604" class="value">41.15</text>
<text x="534" y="635" text-anchor="end" class="label">Futhark, unchecked</text>
<rect x="550" y="621" width="185.8" height="19" rx="3" fill="#e94f37" opacity="0.9"/>
<text x="744.8" y="635" class="value">47.82</text>
<text x="534" y="666" text-anchor="end" class="label">Mech GPU, WGPU per-turn</text>
<rect x="550" y="652" width="610.4" height="19" rx="3" fill="#f4c430" opacity="0.9"/>
<text x="1169.4" y="666" class="value">157.14</text>
<text x="534" y="697" text-anchor="end" class="label">Taichi GPU, native Metal</text>
<rect x="550" y="683" width="756.7" height="19" rx="3" fill="#e36b6b" opacity="0.9"/>
<text x="1315.7" y="697" class="value">194.79</text>
<text x="534" y="728" text-anchor="end" class="label">Taichi optimized native Metal, unchecked</text>
<rect x="550" y="714" width="844.1" height="19" rx="3" fill="#e36b6b" opacity="0.9"/>
<text x="1403.1" y="728" class="value">217.30</text>
<text x="534" y="759" text-anchor="end" class="label">Mech GPU, native Metal</text>
<rect x="550" y="745" width="936.3" height="19" rx="3" fill="#f4c430" opacity="0.9"/>
<text x="1495.3" y="759" class="value">241.03</text>
<text x="52" y="816" class="muted" font-size="12">Checked rows include candidate validation/publication; unchecked rows explicitly omit those guarantees. Native Metal rows are direct command submission; WGPU rows are retained as a portable transport control. Compilation, allocation, warmup, and final readback are excluded from the timed region.</text>
</svg>
