<svg xmlns="http://www.w3.org/2000/svg" width="1700" height="570" viewBox="0 0 1700 570">
<rect width="100%" height="100%" fill="#080c14"/>
<style>text{font-family:-apple-system,BlinkMacSystemFont,"Segoe UI",sans-serif;fill:#e8edf5}.muted{fill:#91a0b5}.grid{stroke:#263246;stroke-width:1}.label{font-size:14px}.value{font-size:13px;font-variant-numeric:tabular-nums}</style>
<text x="42" y="42" font-size="26" font-weight="700">Parallel EKF source-edit cost</text>
<text x="42" y="68" class="muted" font-size="15">Changed source between baseline and advanced variants; zero means the runtime/backend changed instead of the program source</text>
<text x="240" y="98" font-size="15" font-weight="600">Changed line slots</text>
<text x="940.0" y="98" font-size="15" font-weight="600">Changed characters</text>
<line x1="240.0" y1="108" x2="240.0" y2="480" class="grid"/>
<line x1="940.0" y1="108" x2="940.0" y2="480" class="grid"/>
<text x="240.0" y="502" text-anchor="middle" class="muted" font-size="12">0</text>
<text x="940.0" y="502" text-anchor="middle" class="muted" font-size="12">0</text>
<line x1="364.0" y1="108" x2="364.0" y2="480" class="grid"/>
<line x1="1064.0" y1="108" x2="1064.0" y2="480" class="grid"/>
<text x="364.0" y="502" text-anchor="middle" class="muted" font-size="12">140</text>
<text x="1064.0" y="502" text-anchor="middle" class="muted" font-size="12">4,771</text>
<line x1="488.0" y1="108" x2="488.0" y2="480" class="grid"/>
<line x1="1188.0" y1="108" x2="1188.0" y2="480" class="grid"/>
<text x="488.0" y="502" text-anchor="middle" class="muted" font-size="12">280</text>
<text x="1188.0" y="502" text-anchor="middle" class="muted" font-size="12">9,543</text>
<line x1="612.0" y1="108" x2="612.0" y2="480" class="grid"/>
<line x1="1312.0" y1="108" x2="1312.0" y2="480" class="grid"/>
<text x="612.0" y="502" text-anchor="middle" class="muted" font-size="12">420</text>
<text x="1312.0" y="502" text-anchor="middle" class="muted" font-size="12">14,314</text>
<line x1="736.0" y1="108" x2="736.0" y2="480" class="grid"/>
<line x1="1436.0" y1="108" x2="1436.0" y2="480" class="grid"/>
<text x="736.0" y="502" text-anchor="middle" class="muted" font-size="12">560</text>
<text x="1436.0" y="502" text-anchor="middle" class="muted" font-size="12">19,086</text>
<line x1="860.0" y1="108" x2="860.0" y2="480" class="grid"/>
<line x1="1560.0" y1="108" x2="1560.0" y2="480" class="grid"/>
<text x="860.0" y="502" text-anchor="middle" class="muted" font-size="12">701</text>
<text x="1560.0" y="502" text-anchor="middle" class="muted" font-size="12">23,858</text>
<text x="226" y="137" text-anchor="end" class="label">Mech</text>
<rect x="240" y="123" width="1.0" height="22" rx="3" fill="#f4c430" opacity="0.9"/>
<text x="248.0" y="138" class="value">0</text>
<rect x="940.0" y="123" width="1.0" height="22" rx="3" fill="#f4c430" opacity="0.9"/>
<text x="948.0" y="138" class="value">0</text>
<text x="226" y="177" text-anchor="end" class="label">Lua</text>
<rect x="240" y="163" width="1.0" height="22" rx="3" fill="#000080" opacity="0.9"/>
<text x="248.0" y="178" class="value">0</text>
<rect x="940.0" y="163" width="1.0" height="22" rx="3" fill="#000080" opacity="0.9"/>
<text x="948.0" y="178" class="value">0</text>
<text x="226" y="217" text-anchor="end" class="label">Halide</text>
<rect x="240" y="203" width="1.0" height="22" rx="3" fill="#ff8f00" opacity="0.9"/>
<text x="248.0" y="218" class="value">0</text>
<rect x="940.0" y="203" width="1.0" height="22" rx="3" fill="#ff8f00" opacity="0.9"/>
<text x="948.0" y="218" class="value">0</text>
<text x="226" y="257" text-anchor="end" class="label">Futhark</text>
<rect x="240" y="243" width="1.0" height="22" rx="3" fill="#e94f37" opacity="0.9"/>
<text x="248.0" y="258" class="value">0</text>
<rect x="940.0" y="243" width="1.0" height="22" rx="3" fill="#e94f37" opacity="0.9"/>
<text x="948.0" y="258" class="value">0</text>
<text x="226" y="297" text-anchor="end" class="label">NumPy</text>
<rect x="240" y="283" width="83.1" height="22" rx="3" fill="#4d77cf" opacity="0.9"/>
<text x="331.1" y="298" class="value">94</text>
<rect x="940.0" y="283" width="81.2" height="22" rx="3" fill="#4d77cf" opacity="0.9"/>
<text x="1029.2" y="298" class="value">3,123</text>
<text x="226" y="337" text-anchor="end" class="label">Julia</text>
<rect x="240" y="323" width="180.4" height="22" rx="3" fill="#9558b2" opacity="0.9"/>
<text x="428.4" y="338" class="value">204</text>
<rect x="940.0" y="323" width="232.8" height="22" rx="3" fill="#9558b2" opacity="0.9"/>
<text x="1180.8" y="338" class="value">8,960</text>
<text x="226" y="377" text-anchor="end" class="label">LuaJIT</text>
<rect x="240" y="363" width="198.1" height="22" rx="3" fill="#5ba37f" opacity="0.9"/>
<text x="446.1" y="378" class="value">224</text>
<rect x="940.0" y="363" width="235.7" height="22" rx="3" fill="#5ba37f" opacity="0.9"/>
<text x="1183.7" y="378" class="value">9,071</text>
<text x="226" y="417" text-anchor="end" class="label">Taichi</text>
<rect x="240" y="403" width="198.1" height="22" rx="3" fill="#e36b6b" opacity="0.9"/>
<text x="446.1" y="418" class="value">224</text>
<rect x="940.0" y="403" width="302.5" height="22" rx="3" fill="#e36b6b" opacity="0.9"/>
<text x="1250.5" y="418" class="value">11,640</text>
<text x="226" y="457" text-anchor="end" class="label">Rust</text>
<rect x="240" y="443" width="620.0" height="22" rx="3" fill="#dea584" opacity="0.9"/>
<text x="852.0" y="458" class="value">701</text>
<rect x="940.0" y="443" width="620.0" height="22" rx="3" fill="#dea584" opacity="0.9"/>
<text x="1552.0" y="458" class="value">23,858</text>
<text x="42" y="535" class="muted" font-size="12">Mech uses the same high-level `.mec` source for every backend; native-Metal support changed 523 backend line slots and is intentionally not counted as program edits.</text>
</svg>
