<svg xmlns="http://www.w3.org/2000/svg" width="1500" height="515" viewBox="0 0 1500 515">
<rect width="100%" height="100%" fill="#080c14"/>
<style>text{font-family:-apple-system,BlinkMacSystemFont,"Segoe UI",sans-serif;fill:#e8edf5}.muted{fill:#91a0b5}.grid{stroke:#263246;stroke-width:1}.label{font-size:15px}.value{font-size:13px;font-variant-numeric:tabular-nums}</style>
<text x="38" y="42" font-size="27" font-weight="700">Parallel EKF: Synchronized GPU throughput</text>
<text x="38" y="69" class="muted" font-size="15">Synchronized GPU controls, one dispatch per turn. Checked is brighter; unchecked is darker.</text>
<rect x="38" y="87" width="18" height="12" fill="#dce5f2"/><text x="64" y="98" class="muted" font-size="13">checked</text>
<rect x="145" y="87" width="18" height="12" fill="#dce5f2" opacity="0.42"/><text x="171" y="98" class="muted" font-size="13">unchecked</text>
<line x1="300.0" y1="110" x2="300.0" y2="345" class="grid"/>
<text x="300.0" y="369" text-anchor="middle" class="muted" font-size="12">0</text>
<line x1="483.3" y1="110" x2="483.3" y2="345" class="grid"/>
<text x="483.3" y="369" text-anchor="middle" class="muted" font-size="12">50</text>
<line x1="666.7" y1="110" x2="666.7" y2="345" class="grid"/>
<text x="666.7" y="369" text-anchor="middle" class="muted" font-size="12">100</text>
<line x1="850.0" y1="110" x2="850.0" y2="345" class="grid"/>
<text x="850.0" y="369" text-anchor="middle" class="muted" font-size="12">150</text>
<line x1="1033.3" y1="110" x2="1033.3" y2="345" class="grid"/>
<text x="1033.3" y="369" text-anchor="middle" class="muted" font-size="12">200</text>
<line x1="1216.7" y1="110" x2="1216.7" y2="345" class="grid"/>
<text x="1216.7" y="369" text-anchor="middle" class="muted" font-size="12">250</text>
<line x1="1400.0" y1="110" x2="1400.0" y2="345" class="grid"/>
<text x="1400.0" y="369" text-anchor="middle" class="muted" font-size="12">300</text>
<text x="286" y="149" text-anchor="end" class="label">Mech</text>
<rect x="300" y="129" width="689.3" height="16" rx="2" fill="#f4c430" opacity="0.92"/>
<text x="996.3" y="142" class="value">187.999</text>
<rect x="300" y="154" width="1010.3" height="16" rx="2" fill="#f4c430" opacity="0.42"/>
<text x="1317.3" y="167" class="value">275.534</text>
<text x="286" y="204" text-anchor="end" class="label">Julia</text>
<rect x="300" y="184" width="653.2" height="16" rx="2" fill="#9558b2" opacity="0.92"/>
<text x="960.2" y="197" class="value">178.135</text>
<rect x="300" y="209" width="731.3" height="16" rx="2" fill="#9558b2" opacity="0.42"/>
<text x="1038.3" y="222" class="value">199.454</text>
<text x="286" y="259" text-anchor="end" class="label">Taichi</text>
<rect x="300" y="239" width="618.9" height="16" rx="2" fill="#e36b6b" opacity="0.92"/>
<text x="925.9" y="252" class="value">168.798</text>
<rect x="300" y="264" width="796.8" height="16" rx="2" fill="#e36b6b" opacity="0.42"/>
<text x="1103.8" y="277" class="value">217.297</text>
<text x="286" y="314" text-anchor="end" class="label">Halide</text>
<rect x="300" y="294" width="408.7" height="16" rx="2" fill="#ff8f00" opacity="0.92"/>
<text x="715.7" y="307" class="value">111.474</text>
<rect x="300" y="319" width="778.4" height="16" rx="2" fill="#ff8f00" opacity="0.42"/>
<text x="1085.4" y="332" class="value">212.283</text>
<text x="38" y="390" class="muted" font-size="12">Checked is brighter; unchecked is darker.</text>
<g aria-label="Test machine">
<rect x="1010" y="425" width="390" height="72" rx="4" fill="#111827" stroke="#334155"/>
<text x="1022" y="441" fill="#e8edf5" font-size="11" font-weight="700">Test machine</text>
<text x="1022" y="456" fill="#91a0b5" font-size="10">Mac mini Macmini9,1 | Apple M1 | 8-core CPU (4P + 4E)</text>
<text x="1022" y="471" fill="#91a0b5" font-size="10">8 GB LPDDR4 | 8-core integrated Apple M1 GPU | Metal 3</text>
<text x="1022" y="486" fill="#91a0b5" font-size="10">macOS 15.6.1 | arm64</text>
</g>
</svg>
