<svg xmlns="http://www.w3.org/2000/svg" width="1800" height="900" viewBox="0 0 1800 900" role="img" aria-labelledby="cross-title cross-desc">
<title id="cross-title">Comparable checked and unchecked CPU EKF throughput across six implementations</title>
<desc id="cross-desc">Paired horizontal bars show median checked and unchecked throughput for Mech, Rust, Mojo, Julia, Futhark, and NumPy with Numba on one Apple M1. Thin whiskers and value labels report the observed minimum-to-maximum spread.</desc>
<rect width="100%" height="100%" fill="#080c14"/>
<style>text{font-family:-apple-system,BlinkMacSystemFont,"Segoe UI",sans-serif;fill:#e8edf5}.muted{fill:#9aa8ba}.grid{stroke:#2a374c;stroke-width:1}.row-guide{stroke:#182235;stroke-width:1}.axis{fill:#9aa8ba;font-size:14px}.label{font-size:19px;font-weight:600}.detail{fill:#9aa8ba;font-size:13px}.value{font-size:13px;font-variant-numeric:tabular-nums}.whisker{stroke:#eef3fa;stroke-width:2}.footnote{fill:#aab5c5;font-size:13px}</style>
<text x="42" y="48" font-size="28" font-weight="700">Comparable CPU EKF throughput across six implementations</text>
<text x="42" y="80" class="muted" font-size="16">Apple M1 · 500,000 filters × 40 turns · f32 · eight workers · fused CPU execution</text>
<text x="42" y="112" class="muted" font-size="13">Bars are medians; thin whiskers and +/− labels are observed min–max spread, not confidence intervals.</text>
<rect x="1125" y="136" width="24" height="14" rx="2" fill="#e8edf5" opacity="0.95"/><text x="1160" y="149" class="muted" font-size="14">checked</text>
<rect x="1245" y="136" width="24" height="14" rx="2" fill="#e8edf5" opacity="0.48"/><text x="1280" y="149" class="muted" font-size="14">unchecked</text>
<text x="1435" y="150" class="muted" font-size="13">median +high/−low M turns/s</text>
<line x1="355.0" y1="165" x2="355.0" y2="765" class="grid"/>
<text x="355.0" y="792" text-anchor="middle" class="axis">0</text>
<line x1="473.4" y1="165" x2="473.4" y2="765" class="grid"/>
<text x="473.4" y="792" text-anchor="middle" class="axis">20</text>
<line x1="591.8" y1="165" x2="591.8" y2="765" class="grid"/>
<text x="591.8" y="792" text-anchor="middle" class="axis">40</text>
<line x1="710.1" y1="165" x2="710.1" y2="765" class="grid"/>
<text x="710.1" y="792" text-anchor="middle" class="axis">60</text>
<line x1="828.5" y1="165" x2="828.5" y2="765" class="grid"/>
<text x="828.5" y="792" text-anchor="middle" class="axis">80</text>
<line x1="946.9" y1="165" x2="946.9" y2="765" class="grid"/>
<text x="946.9" y="792" text-anchor="middle" class="axis">100</text>
<line x1="1065.3" y1="165" x2="1065.3" y2="765" class="grid"/>
<text x="1065.3" y="792" text-anchor="middle" class="axis">120</text>
<line x1="1183.6" y1="165" x2="1183.6" y2="765" class="grid"/>
<text x="1183.6" y="792" text-anchor="middle" class="axis">140</text>
<line x1="1302.0" y1="165" x2="1302.0" y2="765" class="grid"/>
<text x="1302.0" y="792" text-anchor="middle" class="axis">160</text>
<line x1="1420.4" y1="165" x2="1420.4" y2="765" class="grid"/>
<text x="1420.4" y="792" text-anchor="middle" class="axis">180</text>
<line x1="355" y1="233" x2="1450" y2="233" class="row-guide"/>
<text x="331" y="186" text-anchor="end" class="label">Mech</text>
<text x="331" y="208" text-anchor="end" class="detail">SIMD/JIT · f32x4</text>
<rect x="355" y="168" width="861.6" height="18" rx="3" fill="#f4c430" opacity="0.95"><title>Mech · checked median: 145.573 million turns/s</title></rect>
<line x1="1181.7" y1="177" x2="1227.3" y2="177" class="whisker"/>
<line x1="1181.7" y1="171" x2="1181.7" y2="183" class="whisker"/>
<line x1="1227.3" y1="171" x2="1227.3" y2="183" class="whisker"/>
<text x="1435" y="182" class="value">C 145.6 +1.8/−5.9 · n=3</text>
<rect x="355" y="194" width="981.5" height="18" rx="3" fill="#f4c430" opacity="0.48"><title>Mech · unchecked median: 165.830 million turns/s</title></rect>
<line x1="1322.9" y1="203" x2="1372.4" y2="203" class="whisker"/>
<line x1="1322.9" y1="197" x2="1322.9" y2="209" class="whisker"/>
<line x1="1372.4" y1="197" x2="1372.4" y2="209" class="whisker"/>
<text x="1435" y="208" class="value">U 165.8 +6.1/−2.3 · n=3</text>
<line x1="355" y1="325" x2="1450" y2="325" class="row-guide"/>
<text x="331" y="278" text-anchor="end" class="label">Rust</text>
<text x="331" y="300" text-anchor="end" class="detail">packed SIMD · f32x4</text>
<rect x="355" y="260" width="867.2" height="18" rx="3" fill="#dea584" opacity="0.95"><title>Rust · checked median: 146.509 million turns/s</title></rect>
<line x1="1192.9" y1="269" x2="1225.1" y2="269" class="whisker"/>
<line x1="1192.9" y1="263" x2="1192.9" y2="275" class="whisker"/>
<line x1="1225.1" y1="263" x2="1225.1" y2="275" class="whisker"/>
<text x="1435" y="274" class="value">C 146.5 +0.5/−4.9 · n=3</text>
<rect x="355" y="286" width="969.9" height="18" rx="3" fill="#dea584" opacity="0.48"><title>Rust · unchecked median: 163.866 million turns/s</title></rect>
<line x1="1316.4" y1="295" x2="1358.7" y2="295" class="whisker"/>
<line x1="1316.4" y1="289" x2="1316.4" y2="301" class="whisker"/>
<line x1="1358.7" y1="289" x2="1358.7" y2="301" class="whisker"/>
<text x="1435" y="300" class="value">U 163.9 +5.7/−1.4 · n=3</text>
<line x1="355" y1="417" x2="1450" y2="417" class="row-guide"/>
<text x="331" y="370" text-anchor="end" class="label">Mojo</text>
<text x="331" y="392" text-anchor="end" class="detail">explicit SIMD-4</text>
<rect x="355" y="352" width="849.5" height="18" rx="3" fill="#ff7a1a" opacity="0.95"><title>Mojo · checked median: 143.519 million turns/s</title></rect>
<line x1="1176.3" y1="361" x2="1208.1" y2="361" class="whisker"/>
<line x1="1176.3" y1="355" x2="1176.3" y2="367" class="whisker"/>
<line x1="1208.1" y1="355" x2="1208.1" y2="367" class="whisker"/>
<text x="1435" y="366" class="value">C 143.5 +0.6/−4.8 · n=5</text>
<rect x="355" y="378" width="938.2" height="18" rx="3" fill="#ff7a1a" opacity="0.48"><title>Mojo · unchecked median: 158.512 million turns/s</title></rect>
<line x1="1075.3" y1="387" x2="1296.2" y2="387" class="whisker"/>
<line x1="1075.3" y1="381" x2="1075.3" y2="393" class="whisker"/>
<line x1="1296.2" y1="381" x2="1296.2" y2="393" class="whisker"/>
<text x="1435" y="392" class="value">U 158.5 +0.5/−36.8 · n=5</text>
<line x1="355" y1="509" x2="1450" y2="509" class="row-guide"/>
<text x="331" y="462" text-anchor="end" class="label">Julia</text>
<text x="331" y="484" text-anchor="end" class="detail">SIMD.jl</text>
<rect x="355" y="444" width="760.8" height="18" rx="3" fill="#9558b2" opacity="0.95"><title>Julia · checked median: 128.544 million turns/s</title></rect>
<line x1="1106.4" y1="453" x2="1116.5" y2="453" class="whisker"/>
<line x1="1106.4" y1="447" x2="1106.4" y2="459" class="whisker"/>
<line x1="1116.5" y1="447" x2="1116.5" y2="459" class="whisker"/>
<text x="1435" y="458" class="value">C 128.5 +0.1/−1.6 · n=3</text>
<rect x="355" y="470" width="790.8" height="18" rx="3" fill="#9558b2" opacity="0.48"><title>Julia · unchecked median: 133.605 million turns/s</title></rect>
<line x1="998.8" y1="479" x2="1164.4" y2="479" class="whisker"/>
<line x1="998.8" y1="473" x2="998.8" y2="485" class="whisker"/>
<line x1="1164.4" y1="473" x2="1164.4" y2="485" class="whisker"/>
<text x="1435" y="484" class="value">U 133.6 +3.1/−24.8 · n=3</text>
<line x1="355" y1="601" x2="1450" y2="601" class="row-guide"/>
<text x="331" y="554" text-anchor="end" class="label">Futhark</text>
<text x="331" y="576" text-anchor="end" class="detail">ISPC AOT</text>
<rect x="355" y="536" width="643.5" height="18" rx="3" fill="#5f021f" opacity="0.95"><title>Futhark · checked median: 108.718 million turns/s</title></rect>
<line x1="991.3" y1="545" x2="1001.8" y2="545" class="whisker"/>
<line x1="991.3" y1="539" x2="991.3" y2="551" class="whisker"/>
<line x1="1001.8" y1="539" x2="1001.8" y2="551" class="whisker"/>
<text x="1435" y="550" class="value">C 108.7 +0.6/−1.2 · n=5</text>
<rect x="355" y="562" width="901.6" height="18" rx="3" fill="#5f021f" opacity="0.48"><title>Futhark · unchecked median: 152.330 million turns/s</title></rect>
<line x1="1249.3" y1="571" x2="1267.0" y2="571" class="whisker"/>
<line x1="1249.3" y1="565" x2="1249.3" y2="577" class="whisker"/>
<line x1="1267.0" y1="565" x2="1267.0" y2="577" class="whisker"/>
<text x="1435" y="576" class="value">U 152.3 +1.8/−1.2 · n=5</text>
<line x1="355" y1="693" x2="1450" y2="693" class="row-guide"/>
<text x="331" y="646" text-anchor="end" class="label">NumPy/Numba</text>
<text x="331" y="668" text-anchor="end" class="detail">compiled parallel kernel</text>
<rect x="355" y="628" width="475.4" height="18" rx="3" fill="#4d77cf" opacity="0.95"><title>NumPy/Numba · checked median: 80.323 million turns/s</title></rect>
<line x1="829.2" y1="637" x2="830.6" y2="637" class="whisker"/>
<line x1="829.2" y1="631" x2="829.2" y2="643" class="whisker"/>
<line x1="830.6" y1="631" x2="830.6" y2="643" class="whisker"/>
<text x="1435" y="642" class="value">C 80.3 +0.0/−0.2 · n=3</text>
<rect x="355" y="654" width="485.2" height="18" rx="3" fill="#4d77cf" opacity="0.48"><title>NumPy/Numba · unchecked median: 81.972 million turns/s</title></rect>
<line x1="825.1" y1="663" x2="841.8" y2="663" class="whisker"/>
<line x1="825.1" y1="657" x2="825.1" y2="669" class="whisker"/>
<line x1="841.8" y1="657" x2="841.8" y2="669" class="whisker"/>
<text x="1435" y="668" class="value">U 82.0 +0.3/−2.5 · n=3</text>
<line x1="355" y1="765" x2="1450" y2="765" class="grid"/>
<text x="902.5" y="823" text-anchor="middle" class="muted" font-size="15">million EKF turns per second</text>
<text x="42" y="850" class="footnote">All rows match workload, CPU, worker count, and fused execution. Mech/Rust additionally match block-atomic rollback; other fault interfaces differ.</text>
<text x="42" y="875" class="footnote">NumPy/Numba is compiled by Numba, not interpreted Python. All measured samples reported zero faults.</text>
</svg>
