<svg xmlns="http://www.w3.org/2000/svg" width="1800" height="1100" viewBox="0 0 1800 1100" role="img" aria-labelledby="cross-title cross-desc">
<title id="cross-title">Full checked and unchecked CPU EKF comparison across eight implementations</title>
<desc id="cross-desc">Paired horizontal bars show median checked and unchecked throughput for Mech, Rust, Mojo, Julia, Futhark, Taichi, NumPy with Numba, and Halide on one Apple M1. Thin whiskers and value labels report median absolute deviation from equal fresh-process windows.</desc>
<rect width="100%" height="100%" fill="#080c14"/>
<style>text{font-family:-apple-system,BlinkMacSystemFont,"Segoe UI",sans-serif;fill:#e8edf5}.muted{fill:#9aa8ba}.grid{stroke:#2a374c;stroke-width:1}.row-guide{stroke:#182235;stroke-width:1}.axis{fill:#9aa8ba;font-size:14px}.label{font-size:19px;font-weight:600}.detail{fill:#9aa8ba;font-size:13px}.value{font-size:13px;font-variant-numeric:tabular-nums}.whisker{stroke:#eef3fa;stroke-width:2}.footnote{fill:#aab5c5;font-size:13px}</style>
<text x="42" y="48" font-size="28" font-weight="700">Full CPU EKF comparison across eight implementations</text>
<text x="42" y="80" class="muted" font-size="16">Apple M1 · 500,000 filters × 40 turns · f32 · eight workers</text>
<text x="42" y="112" class="muted" font-size="13">Bars are medians; thin whiskers and ± labels are median absolute deviation, not confidence intervals. No samples removed.</text>
<rect x="1125" y="136" width="24" height="14" rx="2" fill="#e8edf5" opacity="0.95"/><text x="1160" y="149" class="muted" font-size="14">checked</text>
<rect x="1245" y="136" width="24" height="14" rx="2" fill="#e8edf5" opacity="0.48"/><text x="1280" y="149" class="muted" font-size="14">unchecked</text>
<text x="1435" y="150" class="muted" font-size="13">median ± MAD · M turns/s</text>
<line x1="355.0" y1="165" x2="355.0" y2="925" class="grid"/>
<text x="355.0" y="952" text-anchor="middle" class="axis">0</text>
<line x1="461.8" y1="165" x2="461.8" y2="925" class="grid"/>
<text x="461.8" y="952" text-anchor="middle" class="axis">20</text>
<line x1="568.7" y1="165" x2="568.7" y2="925" class="grid"/>
<text x="568.7" y="952" text-anchor="middle" class="axis">40</text>
<line x1="675.5" y1="165" x2="675.5" y2="925" class="grid"/>
<text x="675.5" y="952" text-anchor="middle" class="axis">60</text>
<line x1="782.3" y1="165" x2="782.3" y2="925" class="grid"/>
<text x="782.3" y="952" text-anchor="middle" class="axis">80</text>
<line x1="889.1" y1="165" x2="889.1" y2="925" class="grid"/>
<text x="889.1" y="952" text-anchor="middle" class="axis">100</text>
<line x1="996.0" y1="165" x2="996.0" y2="925" class="grid"/>
<text x="996.0" y="952" text-anchor="middle" class="axis">120</text>
<line x1="1102.8" y1="165" x2="1102.8" y2="925" class="grid"/>
<text x="1102.8" y="952" text-anchor="middle" class="axis">140</text>
<line x1="1209.6" y1="165" x2="1209.6" y2="925" class="grid"/>
<text x="1209.6" y="952" text-anchor="middle" class="axis">160</text>
<line x1="1316.5" y1="165" x2="1316.5" y2="925" class="grid"/>
<text x="1316.5" y="952" text-anchor="middle" class="axis">180</text>
<line x1="1423.3" y1="165" x2="1423.3" y2="925" class="grid"/>
<text x="1423.3" y="952" text-anchor="middle" class="axis">200</text>
<line x1="355" y1="233" x2="1450" y2="233" class="row-guide"/>
<text x="331" y="186" text-anchor="end" class="label">Mech</text>
<text x="331" y="208" text-anchor="end" class="detail">SIMD/JIT · f32x4</text>
<rect x="355" y="168" width="808.3" height="18" rx="3" fill="#f4c430" opacity="0.95"><title>Mech · checked median: 151.323 million turns/s</title></rect>
<line x1="1149.6" y1="177" x2="1177.0" y2="177" class="whisker"/>
<line x1="1149.6" y1="171" x2="1149.6" y2="183" class="whisker"/>
<line x1="1177.0" y1="171" x2="1177.0" y2="183" class="whisker"/>
<text x="1435" y="182" class="value">151.3 ±2.6</text>
<rect x="355" y="194" width="983.6" height="18" rx="3" fill="#f4c430" opacity="0.48"><title>Mech · unchecked median: 184.137 million turns/s</title></rect>
<line x1="1295.2" y1="203" x2="1382.0" y2="203" class="whisker"/>
<line x1="1295.2" y1="197" x2="1295.2" y2="209" class="whisker"/>
<line x1="1382.0" y1="197" x2="1382.0" y2="209" class="whisker"/>
<text x="1435" y="208" class="value">184.1 ±8.1</text>
<line x1="355" y1="321" x2="1450" y2="321" class="row-guide"/>
<text x="331" y="274" text-anchor="end" class="label">Rust</text>
<text x="331" y="296" text-anchor="end" class="detail">packed SIMD · f32x4</text>
<rect x="355" y="256" width="800.9" height="18" rx="3" fill="#dea584" opacity="0.95"><title>Rust · checked median: 149.941 million turns/s</title></rect>
<line x1="1142.6" y1="265" x2="1169.2" y2="265" class="whisker"/>
<line x1="1142.6" y1="259" x2="1142.6" y2="271" class="whisker"/>
<line x1="1169.2" y1="259" x2="1169.2" y2="271" class="whisker"/>
<text x="1435" y="270" class="value">149.9 ±2.5</text>
<rect x="355" y="282" width="910.7" height="18" rx="3" fill="#dea584" opacity="0.48"><title>Rust · unchecked median: 170.490 million turns/s</title></rect>
<line x1="1256.5" y1="291" x2="1274.9" y2="291" class="whisker"/>
<line x1="1256.5" y1="285" x2="1256.5" y2="297" class="whisker"/>
<line x1="1274.9" y1="285" x2="1274.9" y2="297" class="whisker"/>
<text x="1435" y="296" class="value">170.5 ±1.7</text>
<line x1="355" y1="409" x2="1450" y2="409" class="row-guide"/>
<text x="331" y="362" text-anchor="end" class="label">Mojo</text>
<text x="331" y="384" text-anchor="end" class="detail">explicit SIMD-4</text>
<rect x="355" y="344" width="637.2" height="18" rx="3" fill="#ff7a1a" opacity="0.95"><title>Mojo · checked median: 119.291 million turns/s</title></rect>
<line x1="989.8" y1="353" x2="994.6" y2="353" class="whisker"/>
<line x1="989.8" y1="347" x2="989.8" y2="359" class="whisker"/>
<line x1="994.6" y1="347" x2="994.6" y2="359" class="whisker"/>
<text x="1435" y="358" class="value">119.3 ±0.4</text>
<rect x="355" y="370" width="684.5" height="18" rx="3" fill="#ff7a1a" opacity="0.48"><title>Mojo · unchecked median: 128.152 million turns/s</title></rect>
<line x1="1038.3" y1="379" x2="1040.7" y2="379" class="whisker"/>
<line x1="1038.3" y1="373" x2="1038.3" y2="385" class="whisker"/>
<line x1="1040.7" y1="373" x2="1040.7" y2="385" class="whisker"/>
<text x="1435" y="384" class="value">128.2 ±0.2</text>
<line x1="355" y1="497" x2="1450" y2="497" class="row-guide"/>
<text x="331" y="450" text-anchor="end" class="label">Julia</text>
<text x="331" y="472" text-anchor="end" class="detail">SIMD.jl</text>
<rect x="355" y="432" width="689.3" height="18" rx="3" fill="#9558b2" opacity="0.95"><title>Julia · checked median: 129.047 million turns/s</title></rect>
<line x1="1029.1" y1="441" x2="1059.5" y2="441" class="whisker"/>
<line x1="1029.1" y1="435" x2="1029.1" y2="447" class="whisker"/>
<line x1="1059.5" y1="435" x2="1059.5" y2="447" class="whisker"/>
<text x="1435" y="446" class="value">129.0 ±2.8</text>
<rect x="355" y="458" width="728.6" height="18" rx="3" fill="#9558b2" opacity="0.48"><title>Julia · unchecked median: 136.402 million turns/s</title></rect>
<line x1="1077.8" y1="467" x2="1089.3" y2="467" class="whisker"/>
<line x1="1077.8" y1="461" x2="1077.8" y2="473" class="whisker"/>
<line x1="1089.3" y1="461" x2="1089.3" y2="473" class="whisker"/>
<text x="1435" y="472" class="value">136.4 ±1.1</text>
<line x1="355" y1="585" x2="1450" y2="585" class="row-guide"/>
<text x="331" y="538" text-anchor="end" class="label">Futhark</text>
<text x="331" y="560" text-anchor="end" class="detail">ISPC AOT</text>
<rect x="355" y="520" width="522.9" height="18" rx="3" fill="#5f021f" opacity="0.95"><title>Futhark · checked median: 97.897 million turns/s</title></rect>
<line x1="871.7" y1="529" x2="884.1" y2="529" class="whisker"/>
<line x1="871.7" y1="523" x2="871.7" y2="535" class="whisker"/>
<line x1="884.1" y1="523" x2="884.1" y2="535" class="whisker"/>
<text x="1435" y="534" class="value">97.9 ±1.2</text>
<rect x="355" y="546" width="800.9" height="18" rx="3" fill="#5f021f" opacity="0.48"><title>Futhark · unchecked median: 149.931 million turns/s</title></rect>
<line x1="1148.5" y1="555" x2="1163.2" y2="555" class="whisker"/>
<line x1="1148.5" y1="549" x2="1148.5" y2="561" class="whisker"/>
<line x1="1163.2" y1="549" x2="1163.2" y2="561" class="whisker"/>
<text x="1435" y="560" class="value">149.9 ±1.4</text>
<line x1="355" y1="673" x2="1450" y2="673" class="row-guide"/>
<text x="331" y="626" text-anchor="end" class="label">Taichi</text>
<text x="331" y="648" text-anchor="end" class="detail">LLVM CPU · per-turn</text>
<rect x="355" y="608" width="471.9" height="18" rx="3" fill="#e36b6b" opacity="0.95"><title>Taichi · checked median: 88.344 million turns/s</title></rect>
<line x1="824.6" y1="617" x2="829.1" y2="617" class="whisker"/>
<line x1="824.6" y1="611" x2="824.6" y2="623" class="whisker"/>
<line x1="829.1" y1="611" x2="829.1" y2="623" class="whisker"/>
<text x="1435" y="622" class="value">88.3 ±0.4</text>
<rect x="355" y="634" width="509.4" height="18" rx="3" fill="#e36b6b" opacity="0.48"><title>Taichi · unchecked median: 95.363 million turns/s</title></rect>
<line x1="862.7" y1="643" x2="866.1" y2="643" class="whisker"/>
<line x1="862.7" y1="637" x2="862.7" y2="649" class="whisker"/>
<line x1="866.1" y1="637" x2="866.1" y2="649" class="whisker"/>
<text x="1435" y="648" class="value">95.4 ±0.3</text>
<line x1="355" y1="761" x2="1450" y2="761" class="row-guide"/>
<text x="331" y="714" text-anchor="end" class="label">NumPy/Numba</text>
<text x="331" y="736" text-anchor="end" class="detail">compiled parallel kernel</text>
<rect x="355" y="696" width="424.0" height="18" rx="3" fill="#4d77cf" opacity="0.95"><title>NumPy/Numba · checked median: 79.380 million turns/s</title></rect>
<line x1="776.1" y1="705" x2="781.9" y2="705" class="whisker"/>
<line x1="776.1" y1="699" x2="776.1" y2="711" class="whisker"/>
<line x1="781.9" y1="699" x2="781.9" y2="711" class="whisker"/>
<text x="1435" y="710" class="value">79.4 ±0.6</text>
<rect x="355" y="722" width="435.6" height="18" rx="3" fill="#4d77cf" opacity="0.48"><title>NumPy/Numba · unchecked median: 81.557 million turns/s</title></rect>
<line x1="788.8" y1="731" x2="792.5" y2="731" class="whisker"/>
<line x1="788.8" y1="725" x2="788.8" y2="737" class="whisker"/>
<line x1="792.5" y1="725" x2="792.5" y2="737" class="whisker"/>
<text x="1435" y="736" class="value">81.6 ±0.3</text>
<line x1="355" y1="849" x2="1450" y2="849" class="row-guide"/>
<text x="331" y="802" text-anchor="end" class="label">Halide</text>
<text x="331" y="824" text-anchor="end" class="detail">native CPU · per-turn</text>
<rect x="355" y="784" width="120.3" height="18" rx="3" fill="#BD5E9E" opacity="0.95"><title>Halide · checked median: 22.526 million turns/s</title></rect>
<line x1="471.9" y1="793" x2="478.8" y2="793" class="whisker"/>
<line x1="471.9" y1="787" x2="471.9" y2="799" class="whisker"/>
<line x1="478.8" y1="787" x2="478.8" y2="799" class="whisker"/>
<text x="1435" y="798" class="value">22.5 ±0.6</text>
<rect x="355" y="810" width="125.5" height="18" rx="3" fill="#BD5E9E" opacity="0.48"><title>Halide · unchecked median: 23.490 million turns/s</title></rect>
<line x1="480.0" y1="819" x2="481.0" y2="819" class="whisker"/>
<line x1="480.0" y1="813" x2="480.0" y2="825" class="whisker"/>
<line x1="481.0" y1="813" x2="481.0" y2="825" class="whisker"/>
<text x="1435" y="824" class="value">23.49 ±0.09</text>
<line x1="355" y1="925" x2="1450" y2="925" class="grid"/>
<text x="902.5" y="983" text-anchor="middle" class="muted" font-size="15">million EKF turns per second</text>
<text x="42" y="1030" class="footnote">Mech/Rust/Mojo/Julia/Futhark/Numba use fused blocks; Taichi/Halide synchronize publication every turn. Read the figure as a landscape, not a rank.</text>
<text x="42" y="1057" class="footnote">NumPy/Numba is compiled by Numba, not interpreted Python. Raw samples remain in the evidence; all measured samples reported zero faults.</text>
</svg>
